<svg width="54" height="54" viewBox="0 0 54 54" fill="none" xmlns="http://www.w3.org/2000/svg">
<rect width="54" height="54" rx="27" fill="white"/>
<path d="M7.95238 11.8C7.95238 11.8 12 10 27 10C42 10 46.0476 11.8 46.0476 11.8C46.0476 11.8 47 15 47 28C47 41 46.0476 44.2 46.0476 44.2C46.0476 44.2 42 46 27 46C12 46 7.95238 44.2 7.95238 44.2C7.95238 44.2 7 41 7 28C7 15 7.95238 11.8 7.95238 11.8Z" fill="url(#paint0_linear_1098_3180)"/>
<path d="M38.8301 6.06251C39.4552 6.11405 39.8848 6.57195 39.9272 7.19777C39.9662 7.77271 40 8.65835 40 10C40 10.2155 39.9991 10.4193 39.9975 10.6119C41.3998 10.7726 42.5123 10.9471 43.3805 11.1116C45.1033 11.438 46.2841 12.7823 46.4722 14.5257C46.5678 15.411 46.6661 16.5511 46.7516 18H7.24805C7.33354 16.5511 7.43187 15.411 7.52741 14.5257C7.71552 12.7823 8.89635 11.438 10.6192 11.1116C11.4874 10.9471 12.6 10.7726 14.0025 10.6118C14.0009 10.4193 14 10.2155 14 10C14 8.65835 14.0338 7.77271 14.0728 7.19777C14.1152 6.57195 14.5448 6.11405 15.1699 6.06251C15.5953 6.02744 16.1876 6 17 6C17.8124 6 18.4047 6.02744 18.8301 6.06251C19.4552 6.11405 19.8848 6.57195 19.9272 7.19777C19.9662 7.77271 20 8.65835 20 10C20 10.0508 20 10.1009 19.9999 10.1504C22.0129 10.0569 24.3333 10 26.9998 10C29.6665 10 31.987 10.0569 34.0001 10.1504L34 10C34 8.65835 34.0338 7.77271 34.0728 7.19777C34.1152 6.57195 34.5448 6.11405 35.1699 6.06251C35.5953 6.02744 36.1876 6 37 6C37.8124 6 38.4047 6.02744 38.8301 6.06251Z" fill="url(#paint1_linear_1098_3180)"/>
<path fill-rule="evenodd" clip-rule="evenodd" d="M18.0674 25.1734C16.8663 25.2162 16 26.161 16 27.3629V27.8213C16 28.9449 16.7687 29.8185 17.8913 29.8677C19.4205 29.9348 22.153 29.9999 27 29.9999C31.847 29.9999 34.5795 29.9348 36.1087 29.8677C37.2313 29.8185 38 28.9449 38 27.8213V27.039C38 25.9891 37.3108 25.1761 36.2624 25.1197C34.7651 25.0391 32.0138 24.9694 27 25.0136C22.3338 25.0548 19.6272 25.1179 18.0674 25.1734ZM17.8903 34.1005C16.7688 34.1585 16 35.055 16 36.178V36.822C16 37.945 16.7688 38.8415 17.8903 38.8995C18.9455 38.954 20.559 39 23 39C25.441 39 27.0545 38.954 28.1097 38.8995C29.2312 38.8415 30 37.945 30 36.822V36.178C30 35.055 29.2312 34.1585 28.1097 34.1005C27.0545 34.046 25.441 34 23 34C20.559 34 18.9455 34.046 17.8903 34.1005Z" fill="#038175"/>
<defs>
<linearGradient id="paint0_linear_1098_3180" x1="27" y1="10" x2="27" y2="46" gradientUnits="userSpaceOnUse">
<stop stop-color="#E0E0E0"/>
<stop offset="0.583333" stop-color="#C9C9C9"/>
<stop offset="1" stop-color="#979797"/>
</linearGradient>
<linearGradient id="paint1_linear_1098_3180" x1="26.9998" y1="6" x2="26.9998" y2="18" gradientUnits="userSpaceOnUse">
<stop stop-color="#038175"/>
<stop offset="1" stop-color="#13CEBC"/>
</linearGradient>
</defs>
</svg>
