<svg width="54" height="54" viewBox="0 0 54 54" fill="none" xmlns="http://www.w3.org/2000/svg">
<rect width="54" height="54" rx="27" fill="white"/>
<path d="M52 6.5C52 5.11929 50.8807 4 49.5 4H46.1231C44.2877 4 42.6877 5.24919 42.2426 7.02986L41 12H14C11.7909 12 10.0801 13.7876 10.3483 15.9804C10.5667 17.7655 10.922 20.2243 11.5 23.5C13 32 15 35 15 35C15 35 17.2222 36 27.1111 36C37 36 40.2222 35 40.2222 35C40.2222 35 42 30.5 44.1111 22C45.125 17.9179 46.3886 11.9353 46.8347 9.7965C46.9317 9.33185 47.3407 9 47.8153 9H49.5C50.8807 9 52 7.88071 52 6.5Z" fill="url(#paint0_linear_1098_3184)"/>
<path d="M23 38C23 41.3137 20.3137 44 17 44C13.6863 44 11 41.3137 11 38C11 34.6863 13.6863 32 17 32C20.3137 32 23 34.6863 23 38Z" fill="url(#paint1_linear_1098_3184)"/>
<path d="M44 38C44 41.3137 41.3137 44 38 44C34.6863 44 32 41.3137 32 38C32 34.6863 34.6863 32 38 32C41.3137 32 44 34.6863 44 38Z" fill="url(#paint2_linear_1098_3184)"/>
<path d="M21.2188 21.1881C21.1017 20.0166 22.0216 19 23.199 19C24.2214 19 25.0775 19.7747 25.1792 20.7921L25.7812 26.8119C25.8983 27.9834 24.9784 29 23.801 29C22.7786 29 21.9225 28.2253 21.8208 27.2079L21.2188 21.1881Z" fill="#038175"/>
<path d="M30.8208 20.7921C30.9225 19.7747 31.7786 19 32.801 19C33.9784 19 34.8983 20.0166 34.7812 21.1881L34.1792 27.2079C34.0775 28.2253 33.2214 29 32.199 29C31.0216 29 30.1017 27.9834 30.2188 26.8119L30.8208 20.7921Z" fill="#038175"/>
<defs>
<linearGradient id="paint0_linear_1098_3184" x1="31.1603" y1="4" x2="31.1603" y2="36" gradientUnits="userSpaceOnUse">
<stop stop-color="#E0E0E0"/>
<stop offset="0.583333" stop-color="#C9C9C9"/>
<stop offset="1" stop-color="#979797"/>
</linearGradient>
<linearGradient id="paint1_linear_1098_3184" x1="17" y1="32" x2="17" y2="44" gradientUnits="userSpaceOnUse">
<stop stop-color="#038175"/>
<stop offset="1" stop-color="#13CEBC"/>
</linearGradient>
<linearGradient id="paint2_linear_1098_3184" x1="38" y1="32" x2="38" y2="44" gradientUnits="userSpaceOnUse">
<stop stop-color="#038175"/>
<stop offset="1" stop-color="#13CEBC"/>
</linearGradient>
</defs>
</svg>
