<svg width="54" height="54" viewBox="0 0 54 54" fill="none" xmlns="http://www.w3.org/2000/svg">
<rect width="54" height="54" rx="27" fill="white"/>
<path d="M20.5559 6.0636C20.5559 6.0636 18.1076 7 13.6076 11.5C9.12411 15.9835 8.18389 18.4361 8.17706 18.454C8.06779 20.5905 8 23.089 8 26C8 34.6855 8.60351 39.6989 9.11162 42.3807C9.43804 44.1035 10.7823 45.2843 12.5257 45.4724C14.8789 45.7263 19.0315 46 26 46C32.9685 46 37.1211 45.7263 39.4743 45.4724C41.2177 45.2843 42.562 44.1035 42.8884 42.3807C43.3965 39.6989 44 34.6855 44 26C44 17.3145 43.3965 12.3011 42.8884 9.61934C42.562 7.89653 41.2177 6.7157 39.4743 6.52758C37.1211 6.27365 32.9685 6 26 6C23.9503 6 22.1442 6.02371 20.5559 6.0636Z" fill="url(#paint0_linear_1098_3177)"/>
<path d="M8.17706 18.4541C11.0566 19.1783 14.4564 19.2264 17.3929 18.3293C18.6344 17.9501 19.6024 16.9829 20.0214 15.7543C21.0652 12.6936 21.3231 8.94726 20.5559 6.0636C20.5559 6.0636 18.1077 7 13.6077 11.5C9.10767 16 8.17706 18.4541 8.17706 18.4541Z" fill="url(#paint1_linear_1098_3177)"/>
<path d="M30.4286 30.1C30.4286 30.1 32.25 31 39 31C45.75 31 47.5714 30.1 47.5714 30.1C47.5714 30.1 48 28.5 48 22C48 15.5 47.5714 13.9 47.5714 13.9C47.5714 13.9 45.75 13 39 13C32.25 13 30.4286 13.9 30.4286 13.9C30.4286 13.9 30 15.5 30 22C30 28.5 30.4286 30.1 30.4286 30.1Z" fill="url(#paint2_linear_1098_3177)"/>
<path fill-rule="evenodd" clip-rule="evenodd" d="M40.9159 24.1062C42.0938 23.4739 42.8948 22.2305 42.8948 20.8C42.8948 18.7289 41.2158 17.05 39.1448 17.05C37.0737 17.05 35.3948 18.7289 35.3948 20.8C35.3948 22.2305 36.1957 23.4739 37.3737 24.1062C36.2523 24.508 35.3074 25.2805 34.6866 26.276C34.2495 26.9771 34.5464 27.916 35.3525 28.097C35.4981 28.1296 35.6488 28.1534 35.8046 28.1675C36.6543 28.245 37.749 28.3 39.1447 28.3C40.5405 28.3 41.6351 28.245 42.4849 28.1675C42.6407 28.1533 42.7915 28.1296 42.9371 28.0969C43.7432 27.9159 44.0401 26.9771 43.6029 26.276C42.9822 25.2805 42.0372 24.508 40.9159 24.1062Z" fill="white"/>
<path d="M14 37.4228C14 38.1924 14.5815 38.8309 15.3499 38.8736C16.4316 38.9338 18.1635 39 20.5455 39C22.6181 39 23.9524 38.9499 24.7821 38.8972C25.4937 38.8521 26 38.2655 26 37.5525V36.4475C26 35.7345 25.4937 35.1479 24.7821 35.1028C23.9524 35.0501 22.6181 35 20.5455 35C18.1635 35 16.4316 35.0662 15.3499 35.1264C14.5815 35.1691 14 35.8076 14 36.5772V37.4228Z" fill="#038175"/>
<path d="M14 29.5745C14 30.2776 14.4925 30.8635 15.1937 30.9146C15.8226 30.9604 16.7329 31 18 31C19.2671 31 20.1774 30.9604 20.8063 30.9146C21.5075 30.8635 22 30.2776 22 29.5745V28.4255C22 27.7224 21.5075 27.1365 20.8063 27.0854C20.1774 27.0396 19.2671 27 18 27C16.7329 27 15.8226 27.0396 15.1937 27.0854C14.4925 27.1365 14 27.7224 14 28.4255V29.5745Z" fill="#038175"/>
<defs>
<linearGradient id="paint0_linear_1098_3177" x1="26" y1="6" x2="26" y2="46" gradientUnits="userSpaceOnUse">
<stop stop-color="#E0E0E0"/>
<stop offset="0.583333" stop-color="#C9C9C9"/>
<stop offset="1" stop-color="#979797"/>
</linearGradient>
<linearGradient id="paint1_linear_1098_3177" x1="14.5885" y1="6.0636" x2="14.5885" y2="19" gradientUnits="userSpaceOnUse">
<stop stop-color="#038175"/>
<stop offset="1" stop-color="#13CEBC"/>
</linearGradient>
<linearGradient id="paint2_linear_1098_3177" x1="39" y1="31" x2="39" y2="13" gradientUnits="userSpaceOnUse">
<stop stop-color="#038175"/>
<stop offset="1" stop-color="#13CEBC"/>
</linearGradient>
</defs>
</svg>
