<svg width="56" height="56" viewBox="0 0 56 56" fill="none" xmlns="http://www.w3.org/2000/svg">
<path d="M13.1508 10.8174C21.3518 2.61641 34.6482 2.61641 42.8492 10.8174C51.0503 19.0184 51.0503 32.3149 42.8492 40.5159C38.2523 45.1128 34.2775 48.4026 31.6002 50.4523C29.4505 52.0979 26.5495 52.0979 24.3998 50.4523C21.7225 48.4026 17.7477 45.1128 13.1508 40.5159C4.94975 32.3149 4.94975 19.0184 13.1508 10.8174Z" fill="url(#paint0_linear_1098_3103)"/>
<path d="M37.3334 25.6667C37.3334 30.8213 33.1547 35 28 35C22.8454 35 18.6667 30.8213 18.6667 25.6667C18.6667 20.512 22.8454 16.3333 28 16.3333C33.1547 16.3333 37.3334 20.512 37.3334 25.6667Z" fill="white"/>
<defs>
<linearGradient id="paint0_linear_1098_3103" x1="28" y1="4.66666" x2="28" y2="51.6865" gradientUnits="userSpaceOnUse">
<stop offset="0.276042" stop-color="#FF3C47"/>
<stop offset="0.776042" stop-color="#CB3101"/>
<stop offset="1" stop-color="#7E350B"/>
</linearGradient>
</defs>
</svg>
