<svg width="56" height="56" viewBox="0 0 56 56" fill="none" xmlns="http://www.w3.org/2000/svg">
<path d="M13.1508 10.8173C21.3518 2.61625 34.6482 2.61625 42.8492 10.8173C51.0503 19.0183 51.0503 32.3147 42.8492 40.5158C38.2523 45.1126 34.2775 48.4025 31.6002 50.4521C29.4505 52.0978 26.5495 52.0978 24.3998 50.4521C21.7225 48.4025 17.7477 45.1126 13.1508 40.5158C4.94975 32.3147 4.94975 19.0183 13.1508 10.8173Z" fill="url(#paint0_linear_1098_3103)"/>
<path d="M37.3337 25.6668C37.3337 30.8215 33.155 35.0002 28.0003 35.0002C22.8457 35.0002 18.667 30.8215 18.667 25.6668C18.667 20.5122 22.8457 16.3335 28.0003 16.3335C33.155 16.3335 37.3337 20.5122 37.3337 25.6668Z" fill="white"/>
<defs>
<linearGradient id="paint0_linear_1098_3103" x1="28" y1="4.6665" x2="28" y2="51.6863" gradientUnits="userSpaceOnUse">
<stop offset="0.276042" stop-color="#FF3C47"/>
<stop offset="0.776042" stop-color="#CB3101"/>
<stop offset="1" stop-color="#7E350B"/>
</linearGradient>
</defs>
</svg>
