<svg width="24" height="23" viewBox="0 0 24 23" fill="none" xmlns="http://www.w3.org/2000/svg">
<path d="M11.1323 1.52577C11.5165 0.855305 12.4835 0.855304 12.8677 1.52577L15.1705 5.54489C15.5966 6.28856 16.3205 6.81447 17.1594 6.98991L21.6935 7.93809C22.4498 8.09626 22.7486 9.01594 22.2297 9.58848L19.1189 13.0206C18.5433 13.6557 18.2668 14.5066 18.3592 15.3587L18.8586 19.9638C18.9418 20.7321 18.1595 21.3004 17.4546 20.9838L13.2292 19.0859C12.4474 18.7347 11.5526 18.7347 10.7708 19.0859L6.54536 20.9838C5.84048 21.3004 5.05815 20.732 5.14145 19.9638L5.64077 15.3587C5.73317 14.5066 5.45668 13.6557 4.88108 13.0206L1.77029 9.58848C1.25135 9.01594 1.55018 8.09626 2.30654 7.93809L6.84057 6.98991C7.67952 6.81447 8.40337 6.28856 8.82947 5.54489L11.1323 1.52577Z" fill="#038175" stroke="#038175" stroke-width="2"/>
</svg>
