<svg width="24" height="24" viewBox="0 0 24 24" fill="none" xmlns="http://www.w3.org/2000/svg">
<path d="M12 22.75C6.07 22.75 1.25 17.93 1.25 12C1.25 6.07 6.07 1.25 12 1.25C17.93 1.25 22.75 6.07 22.75 12C22.75 17.93 17.93 22.75 12 22.75ZM12 2.75C6.9 2.75 2.75 6.9 2.75 12C2.75 17.1 6.9 21.25 12 21.25C17.1 21.25 21.25 17.1 21.25 12C21.25 6.9 17.1 2.75 12 2.75Z" fill="#292D32"/>
<path d="M12 17L10.5 17.0065C10.5 17.0065 10 16.9947 10 16.5C10 16.0053 10.5 16 10.5 16H11.25V11.75C11.25 11.34 11.59 11 12 11C12.41 11 12.75 11.34 12.75 11.75V15.7911V16H13.5C13.5 16 14 16 14 16.5C14 17 13.5 16.9947 13.5 16.9947L12 17Z" fill="#292D32"/>
<path d="M12 11.0066L13.5 11C13.5 11 14 11.0119 14 11.5066C14 12.0013 13.5 12.0066 13.5 12.0066H12.75V16.2566C12.75 16.6666 12.41 17.0066 12 17.0066C11.59 17.0066 11.25 16.6666 11.25 16.2566V12.2155V12.0066H10.5C10.5 12.0066 10 12.0066 10 11.5066C10 11.0066 10.5 11.0119 10.5 11.0119L12 11.0066Z" fill="#292D32"/>
<path d="M12 8.995C11.87 8.995 11.74 8.965 11.62 8.915C11.5 8.865 11.39 8.795 11.29 8.705C11.2 8.605 11.13 8.505 11.08 8.375C11.03 8.255 11 8.125 11 7.995C11 7.865 11.03 7.735 11.08 7.615C11.13 7.495 11.2 7.385 11.29 7.285C11.39 7.195 11.5 7.125 11.62 7.075C11.86 6.975 12.14 6.975 12.38 7.075C12.5 7.125 12.61 7.195 12.71 7.285C12.8 7.385 12.87 7.495 12.92 7.615C12.97 7.735 13 7.865 13 7.995C13 8.125 12.97 8.255 12.92 8.375C12.87 8.505 12.8 8.605 12.71 8.705C12.61 8.795 12.5 8.865 12.38 8.915C12.26 8.965 12.13 8.995 12 8.995Z" fill="#292D32"/>
</svg>
