<svg width="54" height="54" viewBox="0 0 54 54" fill="none" xmlns="http://www.w3.org/2000/svg">
<path d="M13.1508 10.8174C21.3518 2.61642 34.6482 2.61642 42.8492 10.8174C51.0503 19.0184 51.0503 32.3149 42.8492 40.5159C38.2523 45.1128 34.2775 48.4026 31.6002 50.4523C29.4505 52.0979 26.5495 52.0979 24.3998 50.4523C21.7225 48.4026 17.7477 45.1128 13.1508 40.5159C4.94975 32.3149 4.94975 19.0184 13.1508 10.8174Z" fill="url(#paint0_linear_1987_4141)"/>
<path d="M18.4674 26.8212C18.4674 26.8212 20.4541 26.1831 27.8163 26.1831C35.1786 26.1831 37.1652 26.8212 37.1652 26.8212C37.1652 26.8212 37.6327 25.9922 37.6327 30.6005C37.6327 35.2087 37.1652 36.343 37.1652 36.343C37.1652 36.343 35.1786 36.9811 27.8163 36.9811C20.4541 36.9811 18.4674 36.343 18.4674 36.343C18.4674 36.343 18 35.2087 18 30.6005C18 25.9922 18.4674 26.8212 18.4674 26.8212Z" fill="white"/>
<path fill-rule="evenodd" clip-rule="evenodd" d="M34.1261 19.5572C34.1053 19.25 33.8944 19.0253 33.5876 19L27.7812 19L21.9748 19C21.668 19.0253 21.4571 19.25 21.4363 19.5572C21.4172 19.8394 21.4351 23.5615 21.4351 24.22C21.4351 24.3258 21.4355 24.4258 21.4363 24.5203C20.7479 24.5992 20.2018 24.6849 19.7757 24.7656C18.9301 24.9258 18.3505 25.5856 18.2582 26.4413C18.2113 26.8759 18.1631 27.4354 18.1211 28.1466H37.5101C37.4681 27.4354 37.4199 26.8758 37.373 26.4413C37.2807 25.5856 36.7011 24.9258 35.8555 24.7656C35.4294 24.6849 34.8834 24.5992 34.1951 24.5203C34.1959 24.4258 34.1963 24.3258 34.1963 24.22C34.1963 23.5615 34.1452 19.8394 34.1261 19.5572ZM24.38 24.22C24.38 23.5615 24.3289 21.3118 24.3098 21.0297L31.2526 21.0297C31.2335 21.3118 31.2514 23.5615 31.2514 24.22L31.2515 24.2939C30.2634 24.2479 29.1244 24.22 27.8156 24.22C26.5068 24.22 25.368 24.2479 24.3799 24.2939L24.38 24.22Z" fill="white"/>
<defs>
<linearGradient id="paint0_linear_1987_4141" x1="28" y1="4.66667" x2="28" y2="51.6865" gradientUnits="userSpaceOnUse">
<stop offset="0.276042" stop-color="#FF3C47"/>
<stop offset="0.776042" stop-color="#CB3101"/>
<stop offset="1" stop-color="#7E350B"/>
</linearGradient>
</defs>
</svg>
