<svg width="56" height="56" viewBox="0 0 56 56" fill="none" xmlns="http://www.w3.org/2000/svg">
<path d="M7 45.5C7 49.366 16.402 52.5 28 52.5C39.598 52.5 49 49.366 49 45.5C49 41.634 39.598 38.5 28 38.5C16.402 38.5 7 41.634 7 45.5Z" fill="url(#paint0_linear_1098_2957)"/>
<path fill-rule="evenodd" clip-rule="evenodd" d="M36.1667 11.6667C36.1667 14.0447 35.1503 16.1853 33.5282 17.6778C38.4745 18.4482 42 22.4619 42 27.663C42 30.578 41.7014 32.4525 41.5039 33.3736C41.4081 33.8203 41.1385 34.1987 40.7252 34.3934C40.0345 34.7188 38.6835 35.2142 36.3184 35.5988C35.7921 38.8781 35.061 42.6613 34.1252 45.7477C33.9457 46.34 33.5223 46.8233 32.9377 47.0264C31.9511 47.3692 30.2077 47.8333 28 47.8333C25.7923 47.8333 24.0489 47.3692 23.0623 47.0264C22.4777 46.8233 22.0543 46.34 21.8748 45.7477C20.939 42.6613 20.2079 38.8781 19.6816 35.5988C17.3165 35.2142 15.9655 34.7188 15.2748 34.3934C14.8615 34.1987 14.5919 33.8203 14.4961 33.3736C14.2986 32.4525 14 30.578 14 27.663C14 22.4619 17.5255 18.4482 22.4718 17.6778C20.8497 16.1853 19.8333 14.0447 19.8333 11.6667C19.8333 7.15634 23.4897 3.5 28 3.5C32.5103 3.5 36.1667 7.15634 36.1667 11.6667Z" fill="url(#paint1_linear_1098_2957)"/>
<defs>
<linearGradient id="paint0_linear_1098_2957" x1="28" y1="38.5" x2="28" y2="52.5" gradientUnits="userSpaceOnUse">
<stop stop-color="#038175"/>
<stop offset="1" stop-color="#13CEBC"/>
</linearGradient>
<linearGradient id="paint1_linear_1098_2957" x1="28" y1="3.5" x2="28" y2="47.8333" gradientUnits="userSpaceOnUse">
<stop offset="0.276042" stop-color="#FF3C47"/>
<stop offset="0.776042" stop-color="#CB3101"/>
<stop offset="1" stop-color="#7E350B"/>
</linearGradient>
</defs>
</svg>
