<svg width="17" height="17" viewBox="0 0 17 17" fill="none" xmlns="http://www.w3.org/2000/svg">
<path d="M12.0415 2.12489C12.2275 1.93885 12.4484 1.79127 12.6915 1.69059C12.9345 1.58991 13.1951 1.53809 13.4582 1.53809C13.7213 1.53809 13.9818 1.58991 14.2249 1.69059C14.4679 1.79127 14.6888 1.93885 14.8748 2.12489C15.0609 2.31093 15.2085 2.53179 15.3091 2.77486C15.4098 3.01793 15.4616 3.27846 15.4616 3.54156C15.4616 3.80465 15.4098 4.06518 15.3091 4.30825C15.2085 4.55132 15.0609 4.77218 14.8748 4.95822L5.31234 14.5207L1.4165 15.5832L2.479 11.6874L12.0415 2.12489Z" stroke="#021F18" stroke-width="2" stroke-linecap="round" stroke-linejoin="round"/>
</svg>
