<svg width="101" height="89" viewBox="0 0 101 89" fill="none" xmlns="http://www.w3.org/2000/svg">
<path d="M1.07422 74V59.7812H6.18164C8.01107 59.7812 9.40104 60.1165 10.3516 60.7871C11.3086 61.4577 11.7871 62.431 11.7871 63.707C11.7871 64.4427 11.6178 65.071 11.2793 65.5918C10.9408 66.1126 10.4427 66.4967 9.78516 66.7441C10.5273 66.9395 11.097 67.304 11.4941 67.8379C11.8913 68.3717 12.0898 69.0228 12.0898 69.791C12.0898 71.1842 11.6471 72.2324 10.7617 72.9355C9.88281 73.6322 8.57747 73.987 6.8457 74H1.07422ZM4.50195 67.9551V71.3633H6.74805C7.36654 71.3633 7.8418 71.2233 8.17383 70.9434C8.50586 70.6569 8.67188 70.2565 8.67188 69.7422C8.67188 68.5573 8.08268 67.9616 6.9043 67.9551H4.50195ZM4.50195 65.709H6.28906C7.03776 65.7025 7.57161 65.5658 7.89062 65.2988C8.20964 65.0319 8.36914 64.638 8.36914 64.1172C8.36914 63.5182 8.19661 63.0885 7.85156 62.8281C7.50651 62.5612 6.94987 62.4277 6.18164 62.4277H4.50195V65.709ZM17.3633 66.334H19.0527C20.0293 66.334 20.8887 66.4935 21.6309 66.8125C22.373 67.1315 22.9395 67.584 23.3301 68.1699C23.7207 68.7559 23.916 69.4362 23.916 70.2109C23.916 71.3503 23.4733 72.2682 22.5879 72.9648C21.709 73.6549 20.5078 74 18.9844 74H14.0527V63.4336H17.3633V66.334ZM28.7891 74H25.4785V63.4336H28.7891V74ZM17.3633 68.8633V71.4805H19.0332C19.5345 71.4805 19.9251 71.3665 20.2051 71.1387C20.4915 70.9043 20.6348 70.5885 20.6348 70.1914C20.6348 69.8008 20.5078 69.4818 20.2539 69.2344C20 68.987 19.5931 68.8633 19.0332 68.8633H17.3633ZM41.3379 66.627C41.3379 65.9368 40.9733 65.5918 40.2441 65.5918C39.4043 65.5918 38.9844 65.8945 38.9844 66.5H35.6934C35.6934 65.543 36.0938 64.7617 36.8945 64.1562C37.7018 63.5508 38.7467 63.248 40.0293 63.248C41.4551 63.248 42.5781 63.5182 43.3984 64.0586C44.2188 64.5924 44.6289 65.3477 44.6289 66.3242C44.6289 66.793 44.4857 67.2259 44.1992 67.623C43.9193 68.0137 43.5221 68.3262 43.0078 68.5605C44.2122 68.9837 44.8145 69.8008 44.8145 71.0117C44.8145 71.9753 44.3783 72.7467 43.5059 73.3262C42.64 73.9056 41.4811 74.1953 40.0293 74.1953C38.7077 74.1953 37.627 73.8958 36.7871 73.2969C35.9473 72.6914 35.5273 71.8841 35.5273 70.875H38.8184C38.8184 71.1419 38.929 71.373 39.1504 71.5684C39.3717 71.7572 39.7396 71.8516 40.2539 71.8516C40.6706 71.8516 40.9863 71.7507 41.2012 71.5488C41.4225 71.347 41.5332 71.0703 41.5332 70.7188C41.5332 69.9635 41.1133 69.5729 40.2734 69.5469H38.7988V67.6328H40.1367C40.9375 67.6328 41.3379 67.2975 41.3379 66.627ZM46.4941 71.4609C47.0215 70.9336 47.4023 70.4095 47.6367 69.8887C47.8776 69.3678 48.0176 68.7624 48.0566 68.0723L48.0859 67.3496L48.1445 63.4336H56.377V71.4609H57.959V77.2031H54.6582V74H48.9355V77.2031H45.5566L45.5469 71.4609H46.4941ZM50.2832 71.4609H53.0957V65.9727H51.4062L51.3965 66.8418C51.3509 68.7428 50.9798 70.2826 50.2832 71.4609ZM64.1992 74.1953C62.5781 74.1953 61.2663 73.7135 60.2637 72.75C59.2611 71.7799 58.7598 70.5202 58.7598 68.9707V68.6973C58.7598 67.6165 58.9583 66.6628 59.3555 65.8359C59.7591 65.0091 60.3451 64.3711 61.1133 63.9219C61.8815 63.4661 62.793 63.2383 63.8477 63.2383C65.332 63.2383 66.5039 63.7005 67.3633 64.625C68.2227 65.543 68.6523 66.8255 68.6523 68.4727V69.752H62.1094C62.2266 70.3444 62.4837 70.8099 62.8809 71.1484C63.278 71.487 63.7923 71.6562 64.4238 71.6562C65.4655 71.6562 66.2793 71.2917 66.8652 70.5625L68.3691 72.3398C67.959 72.9062 67.3763 73.3587 66.6211 73.6973C65.8724 74.0293 65.0651 74.1953 64.1992 74.1953ZM63.8281 65.7773C62.8646 65.7773 62.2917 66.4154 62.1094 67.6914H65.4297V67.4375C65.4427 66.9102 65.3092 66.5033 65.0293 66.2168C64.7493 65.9238 64.349 65.7773 63.8281 65.7773ZM74.4531 71.6562C74.9154 71.6562 75.2734 71.5326 75.5273 71.2852C75.7812 71.0312 75.9049 70.6797 75.8984 70.2305H78.9844C78.9844 71.3893 78.5677 72.3398 77.7344 73.082C76.9076 73.8242 75.8398 74.1953 74.5312 74.1953C72.9948 74.1953 71.7839 73.7135 70.8984 72.75C70.013 71.7865 69.5703 70.4518 69.5703 68.7461V68.6094C69.5703 67.5417 69.7656 66.6009 70.1562 65.7871C70.5534 64.9668 71.123 64.3385 71.8652 63.9023C72.6074 63.4596 73.4863 63.2383 74.502 63.2383C75.8757 63.2383 76.9661 63.6191 77.7734 64.3809C78.5807 65.1426 78.9844 66.1745 78.9844 67.4766H75.8984C75.8984 66.9297 75.765 66.5098 75.498 66.2168C75.2311 65.9238 74.873 65.7773 74.4238 65.7773C73.571 65.7773 73.0729 66.321 72.9297 67.4082C72.8841 67.7533 72.8613 68.2285 72.8613 68.834C72.8613 69.8952 72.9883 70.6309 73.2422 71.041C73.4961 71.4512 73.8997 71.6562 74.4531 71.6562ZM83.9062 66.334H85.5957C86.5723 66.334 87.4316 66.4935 88.1738 66.8125C88.916 67.1315 89.4824 67.584 89.873 68.1699C90.2637 68.7559 90.459 69.4362 90.459 70.2109C90.459 71.3503 90.0163 72.2682 89.1309 72.9648C88.252 73.6549 87.0508 74 85.5273 74H80.5957V63.4336H83.9062V66.334ZM83.9062 68.8633V71.4805H85.5762C86.0775 71.4805 86.4681 71.3665 86.748 71.1387C87.0345 70.9043 87.1777 70.5885 87.1777 70.1914C87.1777 69.8008 87.0508 69.4818 86.7969 69.2344C86.543 68.987 86.1361 68.8633 85.5762 68.8633H83.9062Z" fill="black"/>
<path d="M25 45.5C25 49.366 34.402 52.5 46 52.5C57.598 52.5 67 49.366 67 45.5C67 41.634 57.598 38.5 46 38.5C34.402 38.5 25 41.634 25 45.5Z" fill="url(#paint0_linear_1987_4145)"/>
<path fill-rule="evenodd" clip-rule="evenodd" d="M54.1667 11.6667C54.1667 14.0447 53.1503 16.1853 51.5282 17.6778C56.4745 18.4482 60 22.4619 60 27.663C60 30.578 59.7014 32.4525 59.5039 33.3736C59.4081 33.8203 59.1385 34.1987 58.7252 34.3934C58.0345 34.7188 56.6835 35.2142 54.3184 35.5988C53.7921 38.8781 53.061 42.6613 52.1252 45.7477C51.9457 46.34 51.5223 46.8233 50.9377 47.0264C49.9511 47.3692 48.2077 47.8333 46 47.8333C43.7923 47.8333 42.0489 47.3692 41.0623 47.0264C40.4777 46.8233 40.0543 46.34 39.8748 45.7477C38.939 42.6613 38.2079 38.8781 37.6816 35.5988C35.3165 35.2142 33.9655 34.7188 33.2748 34.3934C32.8615 34.1987 32.5919 33.8203 32.4961 33.3736C32.2986 32.4525 32 30.578 32 27.663C32 22.4619 35.5255 18.4482 40.4718 17.6778C38.8497 16.1853 37.8333 14.0447 37.8333 11.6667C37.8333 7.15634 41.4897 3.5 46 3.5C50.5103 3.5 54.1667 7.15634 54.1667 11.6667Z" fill="url(#paint1_linear_1987_4145)"/>
<defs>
<linearGradient id="paint0_linear_1987_4145" x1="46" y1="38.5" x2="46" y2="52.5" gradientUnits="userSpaceOnUse">
<stop stop-color="#038175"/>
<stop offset="1" stop-color="#13CEBC"/>
</linearGradient>
<linearGradient id="paint1_linear_1987_4145" x1="46" y1="3.5" x2="46" y2="47.8333" gradientUnits="userSpaceOnUse">
<stop offset="0.276042" stop-color="#FF3C47"/>
<stop offset="0.776042" stop-color="#CB3101"/>
<stop offset="1" stop-color="#7E350B"/>
</linearGradient>
</defs>
</svg>
